<?xml version="1.0" standalone="no"?><!DOCTYPE svg PUBLIC "-//W3C//DTD SVG 1.1//EN" "http://www.w3.org/Graphics/SVG/1.1/DTD/svg11.dtd"><svg t="1780736425508" class="icon" viewBox="0 0 1024 1024" version="1.1" xmlns="http://www.w3.org/2000/svg" p-id="8212" xmlns:xlink="http://www.w3.org/1999/xlink" width="200" height="200"><path d="M643.076314 518.001691a79.072917 79.072917 0 0 1 1.763157 29.197996l4.368494 13.409404c5.370311 16.757662 6.163373 27.872814 15.157211 31.849382 11.889795 5.225001 66.320475-40.150442 90.441849 1.534959 11.06501 19.199271-0.387833 38.531572-14.639419 51.860135-21.917172 20.431332-74.248028 46.182832-102.589516 37.20639-15.35164-4.88424-36.056194-19.896142-47.170322-31.997761l-5.111415 8.556886c-6.889921 11.988032-6.000668 12.406564 2.070149 19.266809 20.786419 17.632589 48.464805 41.169655 43.645032 72.16253-0.453325 3.478218-1.925862 7.14984-4.044106 10.903328-8.136308 14.040784-35.101449 41.006949-64.606437 63.022359-23.359011 17.453511-73.214489 51.003628-103.415324 33.613562-22.274306-12.809747-21.092387-32.075533-9.091052-52.92949 9.656941-16.806781 27.417443-34.391275 41.169655-48.044226 6.244214-6.195096 11.08036-9.641591 8.362458-12.58462-10.549264-11.323906-30.005384-23.51967-43.351344-31.784914-36.867676 33.258475-85.265966 74.686003-128.761596 98.1893-15.187911 8.216125-41.847084 19.394722-55.743581 2.913353-30.606065-37.611619 80.201623-154.093541 103.059213-180.64015l34.06791-39.145556c7.215332-15.643282 29.53671-46.379307 39.939641-62.666248-5.856381-1.068332-11.921517-1.746784-17.3389-1.795902-2.345418-0.014326-40.894386 80.217996-83.809801 55.385424-20.026102-11.598152-20.414959-36.282345-15.513322-56.438406 6.228865-25.703405 26.901697-66.014506 49.788963-79.84449 20.770046-12.635785 59.31799-17.001209 97.818863-15.398711 18.327414 0.762363 40.440038 3.170203 62.424748 8.299013-31.381731-21.352307-52.005444-57.395198-52.005444-98.1893 0-65.415872 53.168943-118.620631 118.587885-118.620631 65.415872 0 118.652354 53.204759 118.652354 118.620631 0 65.399499-53.235458 118.638027-118.652354 118.638028-4.336772 0-8.639774-0.225127-12.877285-0.694825 22.938432 12.761652 41.006949 30.846542 47.411823 56.147787l-0.008187-0.002046zM426.021813 692.430372c-10.596336-9.187243-19.297508-20.286022-24.199145-35.749202l-0.194428 0.242524c-53.219085 61.890582-106.084107 119.218242-99.079576 126.902248 7.070023 7.746428 111.031792-80.365352 123.473149-91.39557z m182.51587-431.404404c-45.763276 0-82.85301 37.124526-82.853009 82.886779 0 45.843094 37.012985 82.917478 82.853009 82.917478 45.890166 0 82.917478-37.042661 82.917478-82.917478-0.001023-45.873794-37.028335-82.886779-82.917478-82.886779z m15.172561 334.296739l-13.814633 23.164583c9.252735 10.966773 24.651446 26.270317 38.436404 30.671556 8.573259 2.717901 29.732162-4.837168 48.447409-15.609512 7.456832-4.303003 22.403243-14.316054 26.204825-22.321379-3.703345-0.905626-16.126282 3.315512-27.741831 7.279801-34.536584 11.728112-55.338353 13.571087-71.53115-23.178909l-0.001024-0.00614z m-145.585772-125.96183c-32.351825-1.326205-63.523779 1.534959-78.034261 10.320043-13.33061 7.976672-41.767266 60.758806-34.600029 75.04109 3.202948 0.793062 16.031115-15.562441 26.835181-29.3914 12.844539-16.434298 24.166399-30.912034 39.210024-30.767748 29.070082 0.194428 45.373397 7.570419 70.316485 19.929912-20.688181 32.384571-43.578518 65.773006-62.796208 98.626251-5.516644 9.382695-6.582929 20.300348-3.99601 30.410614 9.671267 37.948287 99.516528 59.624982 104.205316 103.947444 1.164522 11.1919-9.460466 21.838378-23.149232 35.409464-3.76986 3.737114-46.474474 38.110993-39.454594 44.85765 12.568247 12.165064 51.148937-21.49864 64.348563-31.366381 53.350069-39.873126 73.601298-47.653323 23.326265-90.280166-17.938558-15.187911-31.94762-27.208689-21.580504-44.613081l61.08217-102.297874c5.985318-10.144034 7.326872-21.8701 4.64274-32.530904-11.1919-44.354184-93.676519-55.759955-130.36307-57.29696l0.007164 0.002046z" p-id="8213"></path></svg>